<?xml version="1.0" encoding="UTF-8"?>
<svg id="Layer_1" data-name="Layer 1" xmlns="http://www.w3.org/2000/svg" viewBox="0 0 2801.91 2991.74">
  <defs>
    <style>
      .cls-1 {
        fill: #0ca7ae;
      }

      .cls-2 {
        fill: #0bae6d;
      }

      .cls-3 {
        fill: #0cae7d;
      }

      .cls-4 {
        fill: #0cae95;
      }

      .cls-5 {
        fill: #0c95ae;
      }
    </style>
  </defs>
  <path class="cls-3" d="m2728.56,608.25c-.93,6.8-1.59,13.16-2.67,19.44-9.9,57.58-19.84,115.15-32.38,172.23-8.89,40.51-19.07,80.71-32.93,119.81-8.5,23.96-18.37,47.44-30.34,70.03-25.62,48.34-56.97,92.66-91.81,134.73-44.67,53.95-92.48,104.96-141.31,155.12-44.99,46.21-91.3,91.05-137.96,135.53-64.75,61.72-130.83,122.02-197.46,181.7-40.95,36.68-81.99,73.25-122.84,110.03-6.05,5.45-12.53,9.51-20.23,12.31-42.69,15.57-85.3,31.34-127.84,47.3-72.45,27.18-144.79,54.65-216.71,83.2-77.56,30.79-154.04,64-229.13,100.36-53.5,25.9-106.16,53.49-158.32,81.98-55.68,30.41-111.18,61.15-166.37,92.43-69.55,39.42-138.1,80.55-205.27,123.92-63.83,41.21-126,84.81-186.71,130.51-81.47,61.33-160.59,125.62-239.45,190.23-22.81,18.69-93.41,84.9-97.88,79.96-3.36-5.33,37.63-55.48,48.14-70.02,51.24-70.88,102.71-141.57,155.46-211.35,65.12-86.15,133.45-169.7,204.17-251.28,68.09-78.54,136.49-156.82,205.35-234.67,79.16-89.5,161.44-176.08,246.53-259.97,63.35-62.47,128.43-123.09,195.57-181.52,43.74-38.07,88.28-75.15,133.58-111.32,57.82-46.15,117.11-90.37,177.91-132.5,78.87-54.64,159.62-106.4,241.86-155.87,76.22-45.85,153.41-89.96,231.36-132.77,81.88-44.97,164.72-88.13,248.03-130.38,110.92-56.24,222.84-110.46,334.89-164.42,4.31-2.08,8.53-5.11,14.76-4.75Z"/>
  <path class="cls-2" d="m2037.56,345.58c-3.11,30.99-10.52,60.97-17.17,91.17-1.92,8.73-5.53,17.08-8.27,25.64-20.09,63-47.93,122.69-77.21,181.79-50.59,102.12-106.7,201.19-165.12,298.97-34.84,58.32-70.45,116.17-105.52,174.35-5.03,8.34-11.52,14.68-19.46,20.25-114.23,80.05-224.96,164.71-332.18,253.94-77.59,64.57-153.1,131.5-226.58,200.74-45.83,43.19-90.85,87.21-134.91,132.19-113.37,115.71-220.65,236.84-321.48,363.68-85.25,107.25-165.71,217.96-241.33,332.19-29.5,44.58-58.04,89.77-86.2,135.21-14.72,23.76-39.58,72.35-45.06,70.59-8.22-3,10.55-54.83,20.09-81.09,24.37-67.1,48.78-134.19,73.7-201.1,27.35-73.47,56.71-146.15,88.08-218.01,56.14-128.62,115.96-255.54,175.88-382.42,39.88-84.46,82.13-167.74,126.1-250.15,31.75-59.49,64.8-118.28,99.2-176.28,47.15-79.5,96.74-157.45,149.09-233.68,50.65-73.77,104.13-145.43,160.1-215.19,40.65-50.65,82.96-99.96,126.09-148.55,36.49-41.11,73.87-81.38,111.41-121.51,28.66-30.65,57.98-60.7,87.4-90.63,58.86-59.88,118.76-118.7,179.58-176.58,61.89-58.9,124.32-117.23,187.7-174.54,53.37-48.25,106.76-96.49,160.15-144.73,3.33-3.02,6.63-6.07,10.04-9,4.99-4.28,6.83-3.85,7.69,2.23,1.68,11.86,3.2,23.76,4.43,35.68,3.49,33.79,6.63,67.62,10.25,101.39,4.2,39.29,6.28,78.73,6.77,118.19.35,28.4-.42,56.83-3.26,85.26Z"/>
  <path class="cls-4" d="m468.15,2571.34c1.3-5.67,8.16-12.04,13.73-17.66,38.73-39.11,79.83-75.58,123.34-109.26,35.95-27.83,73.11-54.06,110.63-79.73,60.61-41.47,122.18-81.49,184.18-120.85,72.97-46.32,146.68-91.43,221.49-134.73,82.6-47.81,166.83-92.6,253.82-131.95,45.94-20.78,92.48-40.19,139.35-58.84,52.44-20.87,105.37-40.41,158.47-59.47,66.24-23.78,132.94-46.25,199.98-67.72,64.19-20.56,128.66-40.13,193.47-58.58,86.45-24.6,173.57-46.65,261.17-66.8,85.18-19.59,170.85-36.79,257.01-51.44,48.72-8.28,97.74-14.85,146.63-22.12,18.27-2.72,36.56-5.3,54.87-7.78,4.42-.6,8.93-.67,13.4-.76,1.88-.04,2.47,1.85,2.19,3.16-.52,2.4-1.58,4.7-2.52,6.99-22.71,55.5-48.52,109.59-76.8,162.4-14.82,27.67-31.96,54.05-51.96,78.61-20.61,25.31-43.84,47.72-67.58,69.93-21.72,20.32-46.65,35.91-70.57,53.05-32.16,23.05-66.83,41.9-101.18,61.3-68.3,38.59-138.43,73.63-208.97,107.9-101.52,49.32-202.92,98.86-304.49,148.08-91.23,44.21-182.63,88.09-273.91,132.2-5.99,2.89-12.06,4.26-18.69,4.51-52.93,1.93-105.89,3.42-158.78,6.29-54.87,2.98-109.8,5.15-164.54,10.35-26.86,2.55-53.81,4.12-80.67,6.66-41.77,3.96-83.42,9.02-125.08,14.11-38.18,4.66-76.22,10.21-114.22,15.99-43.45,6.61-86.73,14.21-129.88,22.61-80.87,15.76-160.85,35.44-241.01,54.34-46.64,11-93.64,20.46-140.49,30.56-1.41.3-2.8.18-2.36-1.36Z"/>
  <path class="cls-1" d="m2387.15,2612.3c-.08,5.29-2.89,6.95-4.9,9.01-35.69,36.72-74.95,69.17-118.7,95.78-25.6,15.57-52.77,28.24-81.03,38.57-48.93,17.89-99.1,30.77-150.5,39.02-31.06,4.99-62.06,10.39-93.22,14.64-36.13,4.93-72.39,8.93-108.62,13.1-32.26,3.71-64.55,7.22-96.85,10.61-24.85,2.61-49.74,4.75-74.59,7.35-42.23,4.41-84.45,8.91-126.66,13.59-26.33,2.91-52.6,6.25-78.91,9.29-3.46.4-6.99.45-10.47.24-52.38-3.15-104.76-6.35-157.14-9.57-42.4-2.61-84.79-5.28-127.19-7.89-34.92-2.15-69.83-4.29-104.76-6.32-5.6-.33-10.69-1.8-15.76-4.21-80.78-38.3-162.48-74.63-242.6-114.33-30.42-15.07-61.43-28.88-94.04-38.87-32.27-9.89-65.29-14.52-98.84-15.49-38.12-1.1-75.82,3.35-113.22,10.38-30.42,5.72-60.69,12.29-91.19,17.55-23.61,4.08-47.47,6.74-71.23,9.97-1.85.25-3.54.61-4.85-.08-1.24-.84-.95-2.65-.44-3.11,20.61-18.21,42.03-35.34,65.74-49.47,24.66-14.7,51.32-24.52,78.57-32.88,43.03-13.21,87.18-21.76,131.23-30.62,33.28-6.69,66.65-12.96,100.04-19.14,45.18-8.37,90.37-16.62,135.81-23.48,46.42-7.01,92.75-14.58,139.15-21.74,37.53-5.79,75.08-11.39,112.64-16.95,34.1-5.05,68.18-10.29,102.36-14.77,38.64-5.06,77.3-9.75,116.2-12.77,42.39-3.29,84.78-5.71,127.28-5.72,26.49,0,53.03-.31,79.46,1.12,35.91,1.94,71.89,3.14,107.69,7.14,23.34,2.61,46.85,3.78,70.13,6.74,60.45,7.68,120.92,15.31,181,25.63,44.79,7.69,89.7,14.73,134.45,22.65,50.65,8.96,101.24,18.24,151.74,27.99,58.33,11.26,116.55,23.14,174.79,34.87,19.06,3.84,38.04,8.05,57.43,12.17Z"/>
  <path class="cls-5" d="m1030.34,941.49c5.51.11,2.19,3.51,1.53,4.38-3.08,4.06-11.66,14.77-16.43,20.82-38.4,48.65-75.69,98.14-112.22,148.21-1.47,2.02-3.01,3.99-4.4,6.07-2.68,4-6.36,5.9-11.15,6.64-35.08,5.46-69.54,13.64-103.6,23.66-48.05,14.14-94.41,32.52-139.18,54.92-55.62,27.82-107.61,61.33-155.87,100.56-30.29,24.62-58.92,51.04-85.44,79.7-38.12,41.2-72,85.6-101.53,133.36-43.92,71.04-76.41,146.95-98.14,227.53-8.72,32.35-15.71,65.08-20.35,98.23-3.95,28.19-6.36,56.56-7.65,85.06-1.8,39.56-.48,78.96,3.26,118.29,7.33,77.01,25.01,151.63,52.95,223.79,9.56,24.69,19.68,49.17,31.72,72.76,3.94,7.71,4.29,14.69,1.69,22.86-17.13,53.76-32.95,107.92-47.53,162.44-3.74,13.99-7.45,27.98-11.17,41.97-.5,1.88-.54,3.98-3.05,5.54-2.68,1.01-3.78-1.89-5.06-3.67-28.85-40.25-55.53-81.88-78.41-125.84-21.47-41.24-40.83-83.47-56.72-127.18-14.68-40.38-27.14-81.45-36.79-123.38-8.97-39-15.88-78.36-20.24-118.07-5.68-51.71-7.99-103.65-5.59-155.69,3.9-84.7,17.35-167.88,41.52-249.15,17.11-57.53,39.16-113.19,66.11-166.93,27.86-55.55,60.3-108.18,97.63-157.82,33.71-44.82,70.94-86.47,111.47-125.29,53.65-51.39,112.18-96.37,175.62-134.86,78.99-47.92,162.96-84.63,251.97-109.8,44.28-12.52,89.12-22.32,134.64-28.79,48.03-6.83,96.35-10.61,144.92-10.38,2.38.01-.8,0,5.53.07Z"/>
  <path class="cls-5" d="m1415.59,2908.71c-19.85,8.25-40.5,14.17-60.92,20.73-49.92,16.03-100.09,31.29-151.33,42.59-31.71,7-63.69,12.28-96.05,15.65-46.88,4.89-93.77,4.83-140.74,2.6-38.48-1.83-76.61-6.67-114.58-13.07-52.79-8.89-104.53-21.88-155.07-39.58-31.61-11.07-62.26-24.41-92.33-39.17-34.57-16.98-67.66-36.53-100.38-56.75-44.65-27.58-87.97-57.17-131.51-86.43-1.62-1.09-2.91-2.67-4.35-4.02.13-1.26.26-2.52.38-3.79,11.99-5.16,24.9-7.03,37.43-10.22,54.63-13.9,109.36-27.42,163.94-41.5,7.34-1.89,13.11-1.61,19.69,2.42,75.58,46.38,157.87,76.4,243.25,98.6,18.83,4.89,37.95,8.68,57.34,10.8,9.5,1.04,18.42,3.69,27.14,7.82,36.97,17.53,74.14,34.66,111.18,52.03,7.74,3.63,15.54,5.94,24.27,6.59,42.31,3.16,84.57,7.05,126.86,10.49,31.34,2.55,62.72,4.72,94.06,7.21,26.87,2.13,53.74,4.44,80.6,6.74,20.38,1.74,40.75,3.6,61.13,5.4,0,1.62,0,3.24,0,4.85Z"/>
  <path class="cls-5" d="m1906.19,2465.36c-27.86-2.43-56.23-4.93-84.6-7.37-18.91-1.63-37.84-3.13-56.75-4.78-9.95-.87-19.89-1.87-29.81-2.98-4.42-.5-5.64-3-3.98-7.41.35-.93.73-1.87,1.2-2.74,8.47-15.85,17.04-31.65,25.38-47.57,2.04-3.9,5.41-5.74,9.06-7.37,10.94-4.89,21.92-9.67,32.87-14.54,63.41-28.21,126.82-56.45,190.25-84.64,3.17-1.41,6.44-2.61,9.75-3.65,1.82-.57,2.99,1.06,2.78,2.42-.52,3.44-1.52,6.81-2.41,10.18-12.32,46.61-30.66,90.73-54.79,132.46-6,10.38-12.12,20.69-17.86,31.21-2.95,5.41-6.57,8.6-13.12,7.31-2.43-.48-4.98-.35-7.97-.53Z"/>
  <path class="cls-1" d="m1415.59,2908.71c0-1.62,0-3.24,0-4.85h9.74c-3.16,3.77-6.01,5.12-9.74,4.85Z"/>
  <path class="cls-1" d="m368.71,2747.48c-.13,1.26-.26,2.52-.38,3.79-1.43-.56-3.53-.69-3.03-2.86.13-.54,2.22-.63,3.41-.92Z"/>
</svg>